Coordinates
version=1
nRows=14
nColumns=46
inDegrees=yes

Units are S.I. units (second, meters, Newtons, ...)
Angles are in degrees.

endheader
time	pelvis_tilt	pelvis_list	pelvis_rotation	pelvis_tx	pelvis_ty	pelvis_tz	bb_angle	bb_tx	bb_ty	bb_tz	hip_flexion_r	hip_adduction_r	hip_rotation_r	knee_angle_r	knee_angle_r_beta	ankle_angle_r	subtalar_angle_r	mtp_angle_r	crank_angle_r	hip_flexion_l	hip_adduction_l	hip_rotation_l	knee_angle_l	knee_angle_l_beta	ankle_angle_l	subtalar_angle_l	mtp_angle_l	crank_angle_l	lumbar_extension	lumbar_bending	lumbar_rotation	arm_flex_r	arm_add_r	arm_rot_r	elbow_flex_r	pro_sup_r	wrist_flex_r	wrist_dev_r	arm_flex_l	arm_add_l	arm_rot_l	elbow_flex_l	pro_sup_l	wrist_flex_l	wrist_dev_l
      2.50500000	    -18.00208363	     -3.12003263	     -6.41813938	      0.17373149	      1.04084972	     -0.30557663	      0.00000000	      0.50000000	      0.00000000	      0.25000000	     89.64352177	      1.15310301	      0.24564000	     88.20300936	      1.53943292	      6.96976430	     -6.07631144	      0.00000000	      0.00000000	     58.42829019	    -13.47000552	      0.27678783	     76.11825661	      1.32851420	    -15.87464890	    -12.41657885	      0.00000000	      0.00000000	    -53.84902807	     -1.16314466	      6.67659869	     89.78263797	     -1.12509235	     29.98299303	     29.80340942	     23.73511736	      0.00000000	      0.00000000	     89.50145931	     -2.10322119	     32.40459339	     28.69805958	     30.27000662	      0.00000000	      0.00000000
      2.51000000	    -18.00885704	     -3.10443083	     -6.43385486	      0.17374230	      1.04087688	     -0.30556648	      0.00000000	      0.50000000	      0.00000000	      0.25000000	     89.65839698	      1.17223962	      0.26254365	     88.21066036	      1.53956646	      6.95174955	     -6.13369630	      0.00000000	      0.00000000	     58.41334767	    -13.46280746	      0.25906095	     76.10049167	      1.32820414	    -15.87625731	    -12.45997620	      0.00000000	      0.00000000	    -53.86399934	     -1.19506427	      6.69574185	     89.78043011	     -0.75274645	     27.80125950	     29.62794170	     25.44035728	      0.00000000	      0.00000000	     89.49940692	     -1.76959148	     31.01097668	     28.48449174	     30.92583520	      0.00000000	      0.00000000
      2.51500000	    -18.02838969	     -3.09083801	     -6.43478390	      0.17375401	      1.04085992	     -0.30556701	      0.00000000	      0.50000000	      0.00000000	      0.25000000	     89.69785669	      1.16736238	      0.27069823	     88.23032398	      1.53990965	      6.91816730	     -6.13106593	      0.00000000	      0.00000000	     58.41191481	    -13.43479660	      0.26458836	     76.07845806	      1.32781958	    -15.89032146	    -12.54299182	      0.00000000	      0.00000000	    -53.84039307	     -1.20314614	      6.69305077	     89.78019942	     -0.62864698	     27.27776639	     29.42543398	     26.27137057	      0.00000000	      0.00000000	     89.49560676	     -1.66309057	     30.46915923	     28.34391101	     31.65113528	      0.00000000	      0.00000000
      2.52000000	    -18.03138049	     -3.15457612	     -6.42516645	      0.17375266	      1.04080048	     -0.30558480	      0.00000000	      0.50000000	      0.00000000	      0.25000000	     89.70643039	      1.16210058	      0.20640502	     88.23299969	      1.53995635	      6.86586923	     -6.10687066	      0.00000000	      0.00000000	     58.43352618	    -13.47327981	      0.33890995	     76.12320856	      1.32860063	    -15.69256770	    -12.37200986	      0.00000000	      0.00000000	    -53.81449828	     -1.15398567	      6.71877458	     89.78299366	     -1.05202601	     29.74461496	     30.37193028	     20.24238334	      0.00000000	      0.00000000	     89.49581637	     -2.05259573	     32.45946580	     28.95080726	     28.37448199	      0.00000000	      0.00000000
      2.52500000	    -18.02848744	     -3.15379481	     -6.44475221	      0.17376122	      1.04078447	     -0.30554591	      0.00000000	      0.50000000	      0.00000000	      0.25000000	     89.71084296	      1.19711115	      0.23059740	     88.23162190	      1.53993231	      6.84975346	     -6.11653199	      0.00000000	      0.00000000	     58.41274072	    -13.48978577	      0.33191672	     76.12861572	      1.32869500	    -15.62385251	    -12.36094488	      0.00000000	      0.00000000	    -53.79917397	     -1.18778901	      6.74319795	     89.78182449	     -1.11306604	     29.90118713	     30.38024155	     20.39081974	      0.00000000	      0.00000000	     89.49613524	     -1.98641222	     32.42004509	     29.03922488	     27.56922943	      0.00000000	      0.00000000
      2.53000000	    -18.03676863	     -3.16130911	     -6.46749071	      0.17376570	      1.04076233	     -0.30552056	      0.00000000	      0.50000000	      0.00000000	      0.25000000	     89.72926912	      1.21945477	      0.22154161	     88.22873668	      1.53988195	      6.79974966	     -6.11688496	      0.00000000	      0.00000000	     58.39965783	    -13.50890113	      0.32999085	     76.13129184	      1.32874171	    -15.52056039	    -12.32868843	      0.00000000	      0.00000000	    -53.79911842	     -1.20134056	      6.77719199	     89.78029621	     -0.95611371	     28.82711193	     30.22889339	     21.72481674	      0.00000000	      0.00000000	     89.49532227	     -1.82209552	     31.63257571	     28.83365490	     28.38017196	      0.00000000	      0.00000000
      2.53500000	    -18.00875189	     -3.14950448	     -6.46622679	      0.17377968	      1.04077679	     -0.30551708	      0.00000000	      0.50000000	      0.00000000	      0.25000000	     89.71537089	      1.21533826	      0.22952872	     88.25115340	      1.54027320	      6.78462431	     -6.12000660	      0.00000000	      0.00000000	     58.34253236	    -13.48975204	      0.32429622	     76.13317349	      1.32877455	    -15.39660181	    -12.29099166	      0.00000000	      0.00000000	    -53.82572133	     -1.22439847	      6.76754567	     89.78073365	     -1.02736025	     29.18488585	     30.59233732	     19.64439852	      0.00000000	      0.00000000	     89.49107718	     -1.88904300	     32.23526079	     29.04368350	     27.23421158	      0.00000000	      0.00000000
      2.54000000	    -18.04954350	     -3.17975490	     -6.46014482	      0.17377271	      1.04068320	     -0.30554601	      0.00000000	      0.50000000	      0.00000000	      0.25000000	     89.75936954	      1.22135336	      0.20099884	     88.23524108	      1.53999547	      6.70486262	     -6.21185461	      0.00000000	      0.00000000	     58.38411951	    -13.49998487	      0.36147011	     76.14750211	      1.32902463	    -15.35879636	    -12.33953271	      0.00000000	      0.00000000	    -53.75211824	     -1.20036214	      6.84945158	     89.77974979	     -1.23425519	     29.50960926	     30.07916318	     22.53602732	      0.00000000	      0.00000000	     89.49911025	     -1.82168430	     32.14139237	     28.59938615	     28.98949901	      0.00000000	      0.00000000
      2.54500000	    -18.04408600	     -3.16055266	     -6.48374577	      0.17382029	      1.04068516	     -0.30552340	      0.00000000	      0.50000000	      0.00000000	      0.25000000	     89.75695388	      1.24380798	      0.23017171	     88.24162342	      1.54010687	      6.72342464	     -6.16182380	      0.00000000	      0.00000000	     58.34374204	    -13.50173079	      0.32692735	     76.15419572	      1.32914145	    -15.23190622	    -12.36558699	      0.00000000	      0.00000000	    -53.75094968	     -1.22699604	      6.80018667	     89.77940231	     -1.23452796	     29.90578509	     30.23351951	     21.41667474	      0.00000000	      0.00000000	     89.49687337	     -1.94490760	     32.45283584	     28.76921409	     28.53020806	      0.00000000	      0.00000000
      2.55000000	    -18.05749054	     -3.14579391	     -6.47470983	      0.17381271	      1.04067752	     -0.30551580	      0.00000000	      0.50000000	      0.00000000	      0.25000000	     89.77585554	      1.24136622	      0.25137186	     88.24114538	      1.54009852	      6.72494069	     -6.17133015	      0.00000000	      0.00000000	     58.33850708	    -13.48352186	      0.30909678	     76.12921798	      1.32870551	    -15.22953104	    -12.36636779	      0.00000000	      0.00000000	    -53.74952501	     -1.23780624	      6.76699141	     89.77904531	     -1.12234854	     29.28974562	     30.18010261	     21.75641368	      0.00000000	      0.00000000	     89.48812291	     -1.90735011	     31.97091865	     28.82369004	     28.64855512	      0.00000000	      0.00000000
      2.55500000	    -18.07722267	     -3.14124320	     -6.45215115	      0.17380738	      1.04063957	     -0.30556751	      0.00000000	      0.50000000	      0.00000000	      0.25000000	     89.79300056	      1.21541526	      0.24872821	     88.23414866	      1.53997641	      6.68639127	     -6.23683729	      0.00000000	      0.00000000	     58.35279492	    -13.44416365	      0.31186706	     76.12488378	      1.32862986	    -15.23253671	    -12.40763550	      0.00000000	      0.00000000	    -53.73203441	     -1.21172103	      6.75934041	     89.77792956	     -1.02075240	     28.54375132	     30.02487159	     22.61654600	      0.00000000	      0.00000000	     89.48281836	     -1.79319434	     31.28387115	     28.76784932	     29.23631749	      0.00000000	      0.00000000
      2.56000000	    -18.08983336	     -3.19150582	     -6.47107653	      0.17381572	      1.04060741	     -0.30552186	      0.00000000	      0.50000000	      0.00000000	      0.25000000	     89.79023992	      1.24829494	      0.20539774	     88.22508308	      1.53981818	      6.73722711	     -6.17202275	      0.00000000	      0.00000000	     58.36795356	    -13.50993515	      0.34751430	     76.14779684	      1.32902977	    -15.10302524	    -12.22217638	      0.00000000	      0.00000000	    -53.70655579	     -1.19506999	      6.81368092	     89.77726042	     -1.26057431	     29.62608612	     30.72249141	     19.47115549	      0.00000000	      0.00000000	     89.48621434	     -1.94604859	     32.34378939	     29.07964777	     26.93237062	      0.00000000	      0.00000000
      2.56500000	    -18.10687873	     -3.20420081	     -6.48443627	      0.17382592	      1.04063974	     -0.30549209	      0.00000000	      0.50000000	      0.00000000	      0.25000000	     89.77573733	      1.27769963	      0.21029311	     88.19827917	      1.53935037	      6.81353364	     -6.14222545	      0.00000000	      0.00000000	     58.37598198	    -13.53267477	      0.34305862	     76.12981178	      1.32871587	    -15.09928768	    -12.25181724	      0.00000000	      0.00000000	    -53.71321776	     -1.17667996	      6.83262790	     89.77478219	     -1.05347948	     28.23363636	     30.05863582	     23.45826010	      0.00000000	      0.00000000	     89.47974483	     -1.73716559	     31.04669296	     28.66238291	     28.76168960	      0.00000000	      0.00000000
      2.57000000	    -18.11461787	     -3.16497178	     -6.44329908	      0.17384684	      1.04061796	     -0.30555860	      0.00000000	      0.50000000	      0.00000000	      0.25000000	     89.78953598	      1.22459713	      0.24602477	     88.21726422	      1.53968172	      6.84384367	     -6.13491179	      0.00000000	      0.00000000	     58.37969203	    -13.46281700	      0.32528340	     76.11033062	      1.32837586	    -15.14350486	    -12.30129280	      0.00000000	      0.00000000	    -53.67933076	     -1.17401940	      6.74690112	     89.77635814	     -1.46236700	     30.05949894	     30.04587430	     23.10967801	      0.00000000	      0.00000000	     89.47622259	     -2.14805323	     32.40116259	     28.84523692	     29.22353646	      0.00000000	      0.00000000
